<mxfile host="app.diagrams.net" modified="2023-12-05T20:37:38.251Z" agent="Mozilla/5.0 (Macintosh; Intel Mac OS X 10_15_7) AppleWebKit/605.1.15 (KHTML, like Gecko) Version/17.1 Safari/605.1.15" etag="jAIdoT8KW_GyjebKDqHY" version="22.1.5" type="device">
  <diagram name="Page-1" id="jBF-Z16Zw4d9tI_p_3Sc">
    <mxGraphModel dx="954" dy="650" grid="0" gridSize="10" guides="1" tooltips="1" connect="1" arrows="1" fold="1" page="1" pageScale="1" pageWidth="850" pageHeight="1100" math="0" shadow="0">
      <root>
        <mxCell id="0" />
        <mxCell id="1" parent="0" />
        <mxCell id="kuSt_zkG8X1ZWzNLtlar-14" style="edgeStyle=orthogonalEdgeStyle;rounded=0;orthogonalLoop=1;jettySize=auto;html=1;exitX=0.5;exitY=1;exitDx=0;exitDy=0;entryX=0.5;entryY=0;entryDx=0;entryDy=0;" edge="1" parent="1" source="kuSt_zkG8X1ZWzNLtlar-2" target="kuSt_zkG8X1ZWzNLtlar-7">
          <mxGeometry relative="1" as="geometry" />
        </mxCell>
        <mxCell id="kuSt_zkG8X1ZWzNLtlar-16" value="Yes" style="edgeLabel;html=1;align=center;verticalAlign=middle;resizable=0;points=[];" vertex="1" connectable="0" parent="kuSt_zkG8X1ZWzNLtlar-14">
          <mxGeometry x="-0.35" relative="1" as="geometry">
            <mxPoint as="offset" />
          </mxGeometry>
        </mxCell>
        <mxCell id="kuSt_zkG8X1ZWzNLtlar-15" value="No" style="edgeStyle=orthogonalEdgeStyle;rounded=0;orthogonalLoop=1;jettySize=auto;html=1;exitX=1;exitY=0.5;exitDx=0;exitDy=0;entryX=0;entryY=0.5;entryDx=0;entryDy=0;" edge="1" parent="1" source="kuSt_zkG8X1ZWzNLtlar-2" target="kuSt_zkG8X1ZWzNLtlar-8">
          <mxGeometry relative="1" as="geometry" />
        </mxCell>
        <mxCell id="kuSt_zkG8X1ZWzNLtlar-2" value="Success?" style="rhombus;whiteSpace=wrap;html=1;" vertex="1" parent="1">
          <mxGeometry x="360" y="240" width="120" height="80" as="geometry" />
        </mxCell>
        <mxCell id="kuSt_zkG8X1ZWzNLtlar-17" style="edgeStyle=orthogonalEdgeStyle;rounded=0;orthogonalLoop=1;jettySize=auto;html=1;exitX=0.5;exitY=1;exitDx=0;exitDy=0;" edge="1" parent="1" source="kuSt_zkG8X1ZWzNLtlar-7" target="kuSt_zkG8X1ZWzNLtlar-9">
          <mxGeometry relative="1" as="geometry" />
        </mxCell>
        <mxCell id="kuSt_zkG8X1ZWzNLtlar-7" value="Cache new items" style="rounded=1;whiteSpace=wrap;html=1;absoluteArcSize=1;arcSize=14;strokeWidth=2;" vertex="1" parent="1">
          <mxGeometry x="360" y="360" width="120" height="40" as="geometry" />
        </mxCell>
        <mxCell id="kuSt_zkG8X1ZWzNLtlar-8" value="Load items from cache" style="rounded=1;whiteSpace=wrap;html=1;absoluteArcSize=1;arcSize=14;strokeWidth=2;" vertex="1" parent="1">
          <mxGeometry x="560" y="260" width="160" height="40" as="geometry" />
        </mxCell>
        <mxCell id="kuSt_zkG8X1ZWzNLtlar-9" value="Update feed screen" style="rounded=1;whiteSpace=wrap;html=1;absoluteArcSize=1;arcSize=14;strokeWidth=2;" vertex="1" parent="1">
          <mxGeometry x="360" y="440" width="120" height="40" as="geometry" />
        </mxCell>
        <mxCell id="kuSt_zkG8X1ZWzNLtlar-12" style="edgeStyle=orthogonalEdgeStyle;rounded=0;orthogonalLoop=1;jettySize=auto;html=1;exitX=0.5;exitY=1;exitDx=0;exitDy=0;entryX=0.5;entryY=0;entryDx=0;entryDy=0;" edge="1" parent="1" source="kuSt_zkG8X1ZWzNLtlar-10" target="kuSt_zkG8X1ZWzNLtlar-11">
          <mxGeometry relative="1" as="geometry" />
        </mxCell>
        <mxCell id="kuSt_zkG8X1ZWzNLtlar-10" value="Show feed screen" style="rounded=1;whiteSpace=wrap;html=1;absoluteArcSize=1;arcSize=14;strokeWidth=2;" vertex="1" parent="1">
          <mxGeometry x="360" y="80" width="120" height="40" as="geometry" />
        </mxCell>
        <mxCell id="kuSt_zkG8X1ZWzNLtlar-13" style="edgeStyle=orthogonalEdgeStyle;rounded=0;orthogonalLoop=1;jettySize=auto;html=1;exitX=0.5;exitY=1;exitDx=0;exitDy=0;entryX=0.5;entryY=0;entryDx=0;entryDy=0;" edge="1" parent="1" source="kuSt_zkG8X1ZWzNLtlar-11" target="kuSt_zkG8X1ZWzNLtlar-2">
          <mxGeometry relative="1" as="geometry" />
        </mxCell>
        <mxCell id="kuSt_zkG8X1ZWzNLtlar-11" value="Fetch new items" style="rounded=1;whiteSpace=wrap;html=1;absoluteArcSize=1;arcSize=14;strokeWidth=2;" vertex="1" parent="1">
          <mxGeometry x="360" y="160" width="120" height="40" as="geometry" />
        </mxCell>
      </root>
    </mxGraphModel>
  </diagram>
</mxfile>
